<svg width="60" height="61" viewBox="0 0 60 61" fill="none" xmlns="http://www.w3.org/2000/svg">
<path d="M33.81 33.0505C35.02 30.91 34.64 28.4982 32.79 26.6089L27.39 21.1019C21.38 14.9719 15.36 8.84182 9.36 2.71177C8.45 1.77719 7.42 0.842605 5.59 0.450684H4.42L4.07 0.510979C2.3 1.02349 1.13 1.96812 0.48 3.41522C0.36 3.68655 0.27 3.97798 0.18 4.2694L0 4.81206L0.03 6.37975C0.38 7.91729 1.29 8.94231 2.2 9.86684L22.43 30.4879L16.47 36.5577C11.71 41.4014 6.96 46.2552 2.2 51.0889C1.29 52.0135 0.37 53.0485 0.03 54.6564L0.01 56.0734L0.08 56.4753C0.35 57.2994 0.81 58.6761 2.11 59.5102C2.51 59.7614 2.93 59.9524 3.39 60.1634L3.86 60.3744L5.79 60.5151L6 60.4548C7.13 60.1232 8.06 59.5705 8.85 58.7666L32.82 34.3067C33.1 34.0253 33.5 33.5831 33.81 33.0505ZM4.79 57.5406L4.48 57.3999C4.2 57.2793 3.93 57.1587 3.69 56.9979C3.37 56.7969 3.18 56.3949 2.96 55.7618V55.0684C3.16 54.375 3.68 53.8022 4.3 53.1691C9.65 47.7425 15 42.2858 20.34 36.8391L25.15 31.935L25.61 31.4225L26.25 30.2367L4.3 7.7766C3.74 7.20379 3.13 6.56064 2.96 6.00793V5.28438L3.03 5.05325C3.08 4.90251 3.12 4.76182 3.19 4.62113C3.44 4.04832 3.92 3.6765 4.72 3.41522L5.3 3.39512C6.03 3.58605 6.64 4.16891 7.25 4.79197C13.26 10.9321 19.27 17.0621 25.28 23.1922L30.68 28.6992C31.31 29.3423 31.92 30.3673 31.23 31.5833C31.13 31.7642 30.95 31.9853 30.71 32.2365L6.75 56.6763C6.37 57.0682 5.91 57.3496 5.36 57.5406H4.79Z" fill="#70BC1F"/>
<path d="M59.2901 29.6237C58.9801 28.0962 58.0501 27.0511 57.1401 26.1165C49.4901 18.3484 41.8601 10.5602 34.2301 2.76201C33.4601 1.97817 32.4001 0.892851 30.4401 0.450684H29.2801L28.9401 0.50093C27.3401 0.943098 26.2301 1.74704 25.5301 2.963C24.3201 5.09344 24.7001 7.47512 26.5301 9.34428C33.4401 16.3888 40.3501 23.4334 47.2601 30.4678L26.6501 51.4909C26.4001 51.7522 26.1501 52.0034 25.9301 52.2948C24.7201 53.9027 24.5001 55.7317 25.3201 57.5707C25.9701 59.0278 27.1501 59.9725 29.0301 60.4749L30.6201 60.5151L30.8101 60.4649C32.3101 60.073 33.3101 59.1484 34.2101 58.2239C41.8401 50.4156 49.4901 42.6274 57.1401 34.8393C58.0501 33.9147 58.9701 32.8596 59.3301 31.0205L59.2901 29.6237ZM29.5401 57.5406C28.7401 57.2893 28.2701 56.9276 28.0201 56.3547C27.6501 55.5207 27.7301 54.8172 28.2901 54.0836C28.4101 53.9128 28.5601 53.7721 28.7601 53.5711L49.8201 32.1059C49.8501 32.0757 49.9201 32.0355 49.9801 31.9953L50.8801 31.0607V29.5935L50.0001 28.9705C49.9401 28.9303 49.8501 28.8801 49.8201 28.8499C42.7501 21.6647 35.7001 14.4694 28.6401 7.26409C27.7301 6.3295 27.5501 5.40497 28.1001 4.44024C28.3801 3.93778 28.8501 3.6162 29.5201 3.41522L30.1301 3.39512C30.8501 3.5961 31.4401 4.14881 32.1301 4.85226C39.7601 12.6505 47.4001 20.4387 55.0401 28.2068C55.6701 28.8499 56.2501 29.473 56.3701 29.9352L56.4001 30.7291C56.2401 31.4828 55.6801 32.0958 55.0301 32.7591C47.3701 40.5472 39.7201 48.3455 32.0901 56.1437C31.4801 56.7668 30.9101 57.3094 30.2301 57.5406H29.5401Z" fill="#70BC1F"/>
</svg>
