<svg width="33" height="44" viewBox="0 0 33 44" fill="none" xmlns="http://www.w3.org/2000/svg">
<path d="M14.5625 0.000426984C14.4939 0.00384315 14.4258 0.0143151 14.3594 0.031677C6.26067 1.09446 0 8.14324 0 16.5102C0 20.8787 1.7057 24.8522 4.48438 27.803L0.65625 39.0021C0.650371 39.0227 0.64516 39.0436 0.640625 39.0646C0.484272 39.6256 0.538308 40.3296 1.01562 40.7983C1.49294 41.267 2.18594 41.3288 2.75 41.1889L7.82812 39.9236L11.5312 43.438C11.9536 43.8367 12.5813 44.1143 13.2188 43.9535C13.8364 43.7976 14.2371 43.2517 14.4062 42.7039H14.4219C14.4265 42.6889 14.4332 42.6724 14.4375 42.6569L16.5 36.5967L18.5625 42.657C18.5674 42.6745 18.5883 42.6865 18.5938 42.704C18.7628 43.2518 19.1636 43.7977 19.7812 43.9536C20.4187 44.1144 21.0464 43.8368 21.4688 43.4381L25.1719 39.9237L30.25 41.1889C30.8141 41.3289 31.5071 41.2671 31.9844 40.7984C32.4617 40.3297 32.5157 39.6256 32.3594 39.0646C32.3548 39.0436 32.3496 39.0228 32.3438 39.0021L28.5156 27.8031C31.2941 24.853 33 20.8748 33 16.5102C33 8.11399 26.7768 1.04562 18.625 0.031677C18.5992 0.0254417 18.5731 0.0202126 18.5469 0.016052C18.2975 0.0173644 18.0576 0.1118 17.8742 0.280792C17.6909 0.449783 17.5773 0.681158 17.5558 0.929534C17.5343 1.17791 17.6063 1.42536 17.7579 1.62335C17.9095 1.82134 18.1295 1.95557 18.375 1.99972C25.5191 2.88833 31 9.10062 31 16.5102C31 24.5273 24.5043 31.005 16.4844 31.005C8.4644 31.005 1.98438 24.5273 1.98438 16.5102C1.98438 9.14286 7.52828 2.93102 14.625 1.99972C14.89 1.99118 15.1408 1.8778 15.3223 1.68451C15.5037 1.49122 15.601 1.23382 15.5927 0.968871C15.5845 0.703925 15.4713 0.453103 15.2781 0.271514C15.0849 0.0899259 14.8275 -0.00755401 14.5625 0.000457501V0.000426984ZM15.9844 6.54495C10.7248 6.81289 6.53125 11.1874 6.53125 16.5102C6.53125 22.0046 11.0033 26.4753 16.5 26.4753C21.9967 26.4753 26.4688 22.0046 26.4688 16.5102C26.4688 11.0157 21.9967 6.54495 16.5 6.54495C16.3282 6.54495 16.154 6.5363 15.9844 6.54495ZM16.5 8.54425C20.9158 8.54425 24.4688 12.0961 24.4688 16.5102C24.4688 20.9241 20.9158 24.476 16.5 24.476C12.0842 24.476 8.51562 20.9241 8.51562 16.5102C8.51562 12.0961 12.0842 8.54425 16.5 8.54425ZM26.9062 29.2868L30.2812 39.1426L25.125 37.8463C24.9627 37.8077 24.7933 37.8104 24.6323 37.8541C24.4713 37.8977 24.3237 37.981 24.2031 38.0962L20.3594 41.7355L17.5781 33.5822C17.5688 33.5557 17.5584 33.5297 17.5469 33.5041C17.5469 33.4989 17.5469 33.4938 17.5469 33.4886L17.7344 32.9419C21.1967 32.6832 24.3647 31.3559 26.9062 29.287V29.2868ZM6.09375 29.3023C8.72188 31.4389 12.0225 32.7867 15.625 32.9729L12.6406 41.7354L8.79688 38.0961C8.67625 37.9809 8.52871 37.8977 8.3677 37.8541C8.20668 37.8104 8.03731 37.8077 7.875 37.8463L2.71875 39.1426L6.09375 29.3024V29.3023Z" fill="#70BC1F"/>
</svg>
