<svg width="80" height="51" viewBox="0 0 80 51" fill="none" xmlns="http://www.w3.org/2000/svg">
<path d="M0 2.07727C0.37 1.32357 0.88 0.770863 1.79 0.831158C6.82 1.17283 11.84 1.5949 16.68 3.17264C17.39 3.40377 18.06 3.76554 18.72 4.10722C19.68 4.61973 20.05 5.43372 19.85 6.51904C19.8 6.80042 19.77 7.0818 19.72 7.41342C20 7.43352 20.22 7.46367 20.45 7.46367C24.41 7.46367 28.37 7.47372 32.33 7.45362C32.69 7.45362 33.12 7.34308 33.4 7.13204C37.26 4.07707 41.44 3.6148 45.94 5.48397C49.28 6.87076 52.63 8.23746 55.97 9.62426C56.11 9.68456 56.26 9.72475 56.33 9.74485C56.47 9.22229 56.48 8.62938 56.76 8.24751C57.06 7.84554 57.59 7.57421 58.08 7.37323C62.03 5.80554 66.15 4.9815 70.35 4.58958C72.67 4.37855 74.99 4.26801 77.32 4.15746C78.91 4.07707 79.56 4.72022 79.56 6.308C79.56 15.9854 79.56 25.6629 79.56 35.3403C79.56 36.8879 78.95 37.5009 77.39 37.5009C74.52 37.511 71.64 37.5009 68.77 37.5009C67.03 37.5009 66.68 37.2497 66.15 35.6016C66.07 35.3604 65.97 35.1192 65.86 34.8178C65.08 35.3403 64.34 35.8026 63.64 36.3251C63.48 36.4457 63.38 36.7673 63.4 36.9783C63.7 40.1841 61.05 42.7969 58.13 42.9677C57.91 42.9778 57.61 43.1888 57.49 43.3898C56.09 45.7312 53.98 46.6759 51.35 46.5251C50.88 46.495 50.66 46.6156 50.43 46.9975C49.2 49.0977 46.46 50.6252 43.86 49.8112C43.71 49.761 43.49 49.761 43.36 49.8414C40.98 51.3387 38.52 50.9971 36.16 49.9519C34.64 49.2786 33.18 48.3843 31.86 47.3693C27.5 44.0229 23.17 40.6363 18.93 37.1391C17.14 35.6619 15.61 33.8631 13.96 32.215C13.85 32.1045 13.74 32.014 13.5 31.7929C13.34 34.1847 11.76 34.2148 10.03 34.1746C7.47 34.1143 4.9 34.1344 2.34 34.1646C1.32 34.1746 0.51 33.9234 0 32.9888V2.07727ZM40.41 47.3592C38.17 45.0278 36 42.827 33.9 40.5559C33.52 40.1439 33.18 39.4605 33.23 38.9279C33.27 38.4455 33.78 37.8627 34.23 37.6014C34.85 37.2497 35.55 37.4808 36.06 38.0235C37.1 39.1088 38.11 40.2243 39.18 41.2895C40.83 42.9376 42.52 44.5555 44.21 46.1634C44.86 46.7864 45.64 46.8166 46.35 46.3443C46.95 45.9423 47.43 45.3795 47.97 44.867C47.77 44.6359 47.7 44.5655 47.63 44.4851C45.25 42.0633 42.86 39.6414 40.48 37.2195C40.32 37.0587 40.17 36.8678 40.05 36.6668C39.44 35.6719 39.91 34.5163 41.02 34.2047C41.84 33.9736 42.39 34.4057 42.92 34.9484C45.42 37.4808 47.9 40.0132 50.44 42.5054C51.5 43.5506 53.36 43.3194 54.28 42.1437C54.57 41.7718 54.64 41.5005 54.24 41.0885C51.3 38.1541 48.39 35.1896 45.48 32.2351C45.3 32.0542 45.13 31.8432 45 31.6221C44.45 30.6875 44.87 29.572 45.89 29.2203C46.77 28.9188 47.36 29.3912 47.93 29.964C50.9 32.9787 53.88 35.9835 56.86 38.9781C57.56 39.6816 58.18 39.7218 59.01 39.1992C60.04 38.5561 60.41 37.3904 59.68 36.3854C58.71 35.0489 57.7 33.6822 56.47 32.6069C51.49 28.2556 46.42 24.0048 41.37 19.7439C41.19 19.5931 40.8 19.5529 40.56 19.6333C39.82 19.8645 39.13 20.2664 38.39 20.4473C37.67 20.6182 37.16 20.9598 36.67 21.5125C34.62 23.8339 32.1 24.9092 28.98 24.3866C25.67 23.8339 24.17 21.7537 24.84 18.4576C25.39 15.7644 26.91 13.5535 28.65 11.5035C28.82 11.3025 29 11.1015 29.23 10.8402H19.15C18.94 11.8351 18.79 12.7998 18.54 13.7545C17.33 18.347 16.09 22.9194 14.89 27.5119C14.81 27.8034 14.84 28.2757 15.02 28.4666C16.56 30.1147 18.05 31.8432 19.76 33.3003C23.36 36.3854 27.06 39.36 30.76 42.3246C32.54 43.7415 34.39 45.0881 36.3 46.3242C37.48 47.0979 38.85 47.5401 40.41 47.3592ZM61.87 33.431C62.62 32.9184 63.37 32.3557 64.17 31.9035C64.74 31.5819 64.79 31.2402 64.57 30.6574C62.66 25.4518 60.77 20.2363 58.89 15.0107C58.68 14.4379 58.4 14.0459 57.76 13.8751C57.02 13.6741 56.3 13.3626 55.58 13.0712C51.73 11.5035 47.89 9.90564 44.02 8.37815C41.59 7.41342 39.16 7.42347 36.87 8.84042C34.29 10.4483 32.1 12.4983 30.24 14.8901C29.19 16.2467 28.32 17.734 28.04 19.4725C27.89 20.387 28.1 20.7186 28.97 20.9699C30.13 21.3015 31.33 21.3919 32.36 20.7387C33.24 20.186 33.94 19.3519 34.72 18.6585C35.15 18.2767 35.55 17.7642 36.07 17.5632C37.53 16.9904 39.05 16.5683 40.52 16.0256C41.4 15.694 42.11 15.8146 42.79 16.4578C43.67 17.3019 44.57 18.1259 45.5 18.9198C51.01 23.6731 57.01 27.8637 61.87 33.431ZM76.18 7.53401C70.8 7.68475 65.56 8.3882 60.55 10.0262C62.16 14.2771 63.81 18.4576 65.33 22.6682C66.63 26.2558 67.78 29.8836 69.02 33.4912C69.1 33.7324 69.37 34.0741 69.56 34.0842C71.76 34.1244 73.95 34.1143 76.19 34.1143V7.53401H76.18ZM3.37 30.8081C5.56 30.8081 7.66 30.788 9.75 30.8181C10.27 30.8282 10.45 30.6272 10.58 30.1549C12.05 24.8288 13.59 19.5328 14.99 14.1866C15.64 11.7145 16.03 9.18209 16.55 6.61953C12.2 5.15234 7.81 4.74032 3.37 4.3082V30.8081Z" fill="#70BC1F"/>
</svg>
