<svg width="194" height="458" viewBox="0 0 194 458" fill="none" xmlns="http://www.w3.org/2000/svg">
<path d="M3.094 140.628H0.056V139.088H7.896V140.628H4.858V149H3.094V140.628ZM7.93319 145.612C7.93319 145.08 8.02652 144.599 8.21319 144.17C8.40919 143.731 8.67052 143.358 8.99719 143.05C9.32385 142.742 9.71119 142.504 10.1592 142.336C10.6072 142.168 11.0832 142.084 11.5872 142.084C12.0912 142.084 12.5672 142.168 13.0152 142.336C13.4632 142.504 13.8505 142.742 14.1772 143.05C14.5039 143.358 14.7605 143.731 14.9472 144.17C15.1432 144.599 15.2412 145.08 15.2412 145.612C15.2412 146.144 15.1432 146.629 14.9472 147.068C14.7605 147.507 14.5039 147.885 14.1772 148.202C13.8505 148.51 13.4632 148.753 13.0152 148.93C12.5672 149.107 12.0912 149.196 11.5872 149.196C11.0832 149.196 10.6072 149.107 10.1592 148.93C9.71119 148.753 9.32385 148.51 8.99719 148.202C8.67052 147.885 8.40919 147.507 8.21319 147.068C8.02652 146.629 7.93319 146.144 7.93319 145.612ZM9.64119 145.612C9.64119 145.873 9.67852 146.135 9.75319 146.396C9.83719 146.657 9.95852 146.891 10.1172 147.096C10.2759 147.301 10.4765 147.469 10.7192 147.6C10.9619 147.731 11.2512 147.796 11.5872 147.796C11.9232 147.796 12.2125 147.731 12.4552 147.6C12.6979 147.469 12.8985 147.301 13.0572 147.096C13.2159 146.891 13.3325 146.657 13.4072 146.396C13.4912 146.135 13.5332 145.873 13.5332 145.612C13.5332 145.351 13.4912 145.094 13.4072 144.842C13.3325 144.581 13.2159 144.347 13.0572 144.142C12.8985 143.937 12.6979 143.773 12.4552 143.652C12.2125 143.521 11.9232 143.456 11.5872 143.456C11.2512 143.456 10.9619 143.521 10.7192 143.652C10.4765 143.773 10.2759 143.937 10.1172 144.142C9.95852 144.347 9.83719 144.581 9.75319 144.842C9.67852 145.094 9.64119 145.351 9.64119 145.612ZM24.4021 149H22.8061V147.992H22.7781C22.5448 148.384 22.2181 148.683 21.7981 148.888C21.3874 149.093 20.9441 149.196 20.4681 149.196C19.9548 149.196 19.4928 149.103 19.0821 148.916C18.6808 148.72 18.3354 148.463 18.0461 148.146C17.7661 147.819 17.5468 147.441 17.3881 147.012C17.2388 146.573 17.1641 146.107 17.1641 145.612C17.1641 145.117 17.2434 144.655 17.4021 144.226C17.5608 143.797 17.7848 143.423 18.0741 143.106C18.3634 142.789 18.7088 142.541 19.1101 142.364C19.5114 142.177 19.9501 142.084 20.4261 142.084C20.7341 142.084 21.0094 142.121 21.2521 142.196C21.4948 142.261 21.7048 142.345 21.8821 142.448C22.0688 142.551 22.2274 142.663 22.3581 142.784C22.4888 142.905 22.5961 143.022 22.6801 143.134H22.7221V138.416H24.4021V149ZM18.8721 145.612C18.8721 145.873 18.9094 146.135 18.9841 146.396C19.0681 146.657 19.1894 146.891 19.3481 147.096C19.5068 147.301 19.7074 147.469 19.9501 147.6C20.1928 147.731 20.4774 147.796 20.8041 147.796C21.1121 147.796 21.3874 147.735 21.6301 147.614C21.8728 147.483 22.0781 147.315 22.2461 147.11C22.4234 146.905 22.5541 146.676 22.6381 146.424C22.7314 146.163 22.7781 145.901 22.7781 145.64C22.7781 145.379 22.7314 145.117 22.6381 144.856C22.5541 144.595 22.4234 144.361 22.2461 144.156C22.0781 143.951 21.8728 143.783 21.6301 143.652C21.3874 143.521 21.1121 143.456 20.8041 143.456C20.4774 143.456 20.1928 143.521 19.9501 143.652C19.7074 143.773 19.5068 143.937 19.3481 144.142C19.1894 144.347 19.0681 144.581 18.9841 144.842C18.9094 145.094 18.8721 145.351 18.8721 145.612ZM31.3152 148.146H31.2732C31.1052 148.445 30.8345 148.692 30.4612 148.888C30.0878 149.075 29.6632 149.168 29.1872 149.168C28.9165 149.168 28.6318 149.131 28.3332 149.056C28.0438 148.991 27.7732 148.879 27.5212 148.72C27.2785 148.552 27.0732 148.337 26.9052 148.076C26.7465 147.805 26.6672 147.474 26.6672 147.082C26.6672 146.578 26.8072 146.177 27.0872 145.878C27.3765 145.579 27.7452 145.351 28.1932 145.192C28.6412 145.033 29.1358 144.931 29.6772 144.884C30.2278 144.828 30.7645 144.8 31.2872 144.8V144.632C31.2872 144.212 31.1332 143.904 30.8252 143.708C30.5265 143.503 30.1672 143.4 29.7472 143.4C29.3925 143.4 29.0518 143.475 28.7252 143.624C28.3985 143.773 28.1278 143.955 27.9132 144.17L27.0452 143.148C27.4278 142.793 27.8665 142.527 28.3612 142.35C28.8652 142.173 29.3738 142.084 29.8872 142.084C30.4845 142.084 30.9745 142.168 31.3572 142.336C31.7492 142.504 32.0572 142.723 32.2812 142.994C32.5052 143.265 32.6592 143.568 32.7432 143.904C32.8365 144.24 32.8832 144.576 32.8832 144.912V149H31.3152V148.146ZM31.2872 145.934H30.9092C30.6385 145.934 30.3538 145.948 30.0552 145.976C29.7565 145.995 29.4812 146.046 29.2292 146.13C28.9772 146.205 28.7672 146.317 28.5992 146.466C28.4312 146.606 28.3472 146.802 28.3472 147.054C28.3472 147.213 28.3798 147.348 28.4452 147.46C28.5198 147.563 28.6132 147.647 28.7252 147.712C28.8372 147.777 28.9632 147.824 29.1032 147.852C29.2432 147.88 29.3832 147.894 29.5232 147.894C30.1018 147.894 30.5405 147.74 30.8392 147.432C31.1378 147.124 31.2872 146.704 31.2872 146.172V145.934ZM34.5324 142.28H36.3944L38.2704 147.166H38.2984L39.9644 142.28H41.7144L38.5364 150.442C38.4151 150.75 38.2844 151.021 38.1444 151.254C38.0044 151.497 37.8364 151.697 37.6404 151.856C37.4444 152.024 37.2111 152.15 36.9404 152.234C36.6791 152.318 36.3618 152.36 35.9884 152.36C35.8484 152.36 35.7038 152.351 35.5544 152.332C35.4144 152.323 35.2698 152.299 35.1204 152.262L35.2604 150.806C35.3724 150.843 35.4798 150.867 35.5824 150.876C35.6944 150.895 35.7971 150.904 35.8904 150.904C36.0678 150.904 36.2171 150.881 36.3384 150.834C36.4598 150.797 36.5624 150.731 36.6464 150.638C36.7304 150.554 36.8051 150.447 36.8704 150.316C36.9358 150.185 37.0058 150.031 37.0804 149.854L37.4164 149L34.5324 142.28Z" fill="#014A2A"/>
<path d="M0.966 359.46L4.788 355.708C5.096 355.409 5.33867 355.111 5.516 354.812C5.70267 354.504 5.796 354.154 5.796 353.762C5.796 353.295 5.642 352.927 5.334 352.656C5.03533 352.376 4.662 352.236 4.214 352.236C3.738 352.236 3.35533 352.399 3.066 352.726C2.77667 353.043 2.59933 353.445 2.534 353.93L0.896 353.678C0.942667 353.267 1.05933 352.889 1.246 352.544C1.43267 352.199 1.67067 351.9 1.96 351.648C2.24933 351.396 2.58533 351.2 2.968 351.06C3.36 350.911 3.78467 350.836 4.242 350.836C4.67133 350.836 5.082 350.897 5.474 351.018C5.87533 351.139 6.23 351.326 6.538 351.578C6.846 351.821 7.08867 352.124 7.266 352.488C7.45267 352.843 7.546 353.258 7.546 353.734C7.546 354.051 7.504 354.35 7.42 354.63C7.336 354.901 7.21933 355.157 7.07 355.4C6.93 355.643 6.762 355.876 6.566 356.1C6.37933 356.315 6.174 356.525 5.95 356.73L3.094 359.46H7.56V361H0.966V359.46ZM17.0149 356.044C17.0149 356.847 16.9356 357.57 16.7769 358.214C16.6276 358.858 16.4036 359.404 16.1049 359.852C15.8156 360.3 15.4516 360.645 15.0129 360.888C14.5836 361.131 14.0889 361.252 13.5289 361.252C12.9689 361.252 12.4696 361.131 12.0309 360.888C11.5923 360.645 11.2236 360.3 10.9249 359.852C10.6263 359.404 10.3976 358.858 10.2389 358.214C10.0896 357.57 10.0149 356.847 10.0149 356.044C10.0149 355.241 10.0896 354.518 10.2389 353.874C10.3976 353.23 10.6263 352.684 10.9249 352.236C11.2236 351.788 11.5923 351.443 12.0309 351.2C12.4696 350.957 12.9689 350.836 13.5289 350.836C14.0889 350.836 14.5836 350.957 15.0129 351.2C15.4516 351.443 15.8156 351.788 16.1049 352.236C16.4036 352.684 16.6276 353.23 16.7769 353.874C16.9356 354.518 17.0149 355.241 17.0149 356.044ZM15.2929 356.044C15.2929 355.699 15.2696 355.307 15.2229 354.868C15.1856 354.429 15.1016 354.014 14.9709 353.622C14.8496 353.23 14.6723 352.903 14.4389 352.642C14.2056 352.371 13.9023 352.236 13.5289 352.236C13.1463 352.236 12.8383 352.371 12.6049 352.642C12.3716 352.903 12.1896 353.23 12.0589 353.622C11.9376 354.014 11.8536 354.429 11.8069 354.868C11.7603 355.307 11.7369 355.699 11.7369 356.044C11.7369 356.389 11.7603 356.781 11.8069 357.22C11.8536 357.659 11.9376 358.069 12.0589 358.452C12.1896 358.835 12.3716 359.161 12.6049 359.432C12.8383 359.693 13.1463 359.824 13.5289 359.824C13.9023 359.824 14.2056 359.693 14.4389 359.432C14.6723 359.161 14.8496 358.835 14.9709 358.452C15.1016 358.069 15.1856 357.659 15.2229 357.22C15.2696 356.781 15.2929 356.389 15.2929 356.044ZM22.3958 353.132L20.4358 354.742L19.4558 353.58L22.5498 351.088H24.0758V361H22.3958V353.132ZM32.0048 350.836C32.4341 350.836 32.8401 350.897 33.2228 351.018C33.6054 351.139 33.9368 351.317 34.2168 351.55C34.5061 351.783 34.7301 352.068 34.8888 352.404C35.0568 352.731 35.1408 353.104 35.1408 353.524C35.1408 354.103 34.9961 354.583 34.7068 354.966C34.4174 355.349 34.0488 355.615 33.6008 355.764V355.792C33.8621 355.857 34.1048 355.965 34.3288 356.114C34.5528 356.254 34.7488 356.431 34.9168 356.646C35.0848 356.851 35.2154 357.085 35.3088 357.346C35.4114 357.607 35.4628 357.892 35.4628 358.2C35.4628 358.695 35.3694 359.133 35.1828 359.516C35.0054 359.889 34.7581 360.207 34.4408 360.468C34.1328 360.729 33.7688 360.925 33.3488 361.056C32.9288 361.187 32.4808 361.252 32.0048 361.252C31.5288 361.252 31.0808 361.187 30.6608 361.056C30.2408 360.925 29.8721 360.729 29.5548 360.468C29.2468 360.207 28.9994 359.889 28.8128 359.516C28.6354 359.133 28.5468 358.695 28.5468 358.2C28.5468 357.883 28.5981 357.589 28.7008 357.318C28.8034 357.047 28.9388 356.809 29.1068 356.604C29.2841 356.399 29.4848 356.231 29.7088 356.1C29.9328 355.96 30.1661 355.857 30.4088 355.792V355.764C29.9608 355.605 29.5921 355.349 29.3028 354.994C29.0134 354.639 28.8688 354.173 28.8688 353.594C28.8688 353.174 28.9481 352.796 29.1068 352.46C29.2748 352.115 29.4988 351.825 29.7788 351.592C30.0681 351.349 30.3994 351.163 30.7728 351.032C31.1554 350.901 31.5661 350.836 32.0048 350.836ZM32.0048 352.222C31.5848 352.222 31.2394 352.348 30.9688 352.6C30.7074 352.852 30.5768 353.193 30.5768 353.622C30.5768 354.023 30.7028 354.364 30.9548 354.644C31.2161 354.924 31.5661 355.064 32.0048 355.064C32.2008 355.064 32.3874 355.027 32.5648 354.952C32.7421 354.877 32.8961 354.775 33.0268 354.644C33.1574 354.513 33.2601 354.359 33.3348 354.182C33.4094 354.005 33.4468 353.818 33.4468 353.622C33.4468 353.407 33.4048 353.216 33.3208 353.048C33.2461 352.871 33.1388 352.721 32.9988 352.6C32.8681 352.479 32.7141 352.385 32.5368 352.32C32.3688 352.255 32.1914 352.222 32.0048 352.222ZM32.0048 356.492C31.7621 356.492 31.5334 356.534 31.3188 356.618C31.1134 356.702 30.9314 356.819 30.7728 356.968C30.6234 357.108 30.5021 357.285 30.4088 357.5C30.3248 357.705 30.2828 357.934 30.2828 358.186C30.2828 358.709 30.4461 359.115 30.7728 359.404C31.0994 359.693 31.5101 359.838 32.0048 359.838C32.4901 359.838 32.8961 359.693 33.2228 359.404C33.5494 359.115 33.7128 358.709 33.7128 358.186C33.7128 357.943 33.6661 357.719 33.5728 357.514C33.4888 357.299 33.3674 357.117 33.2088 356.968C33.0594 356.819 32.8774 356.702 32.6628 356.618C32.4574 356.534 32.2381 356.492 32.0048 356.492Z" fill="#014A2A"/>
<path d="M89 6.30322L92 1.4353L95 6.30322" stroke="#A9D779" stroke-width="2" stroke-linecap="round" stroke-linejoin="round"/>
<path d="M92 458L92 3.00001" stroke="#A9D779" stroke-width="2" stroke-linejoin="round"/>
<circle cx="92" cy="357" r="8" fill="#FFF9E7" stroke="#67927F" stroke-width="6"/>
<circle cx="92.5" cy="145.5" r="21.5" fill="#FFF9E7" stroke="#FEC828" stroke-width="6"/>
<path d="M117 146L193.5 146" stroke="#70BC1F" stroke-dasharray="2 2"/>
</svg>
