<svg width="23" height="36" viewBox="0 0 23 36" fill="none" xmlns="http://www.w3.org/2000/svg">
<g clip-path="url(#clip0)">
<path d="M11.5 1.15028C5.81505 1.15028 1.18382 5.65028 1.18382 11.1742C1.18382 20.9199 9.53563 29.6292 11.5 31.5379C13.4514 29.6292 21.8162 20.9073 21.8162 11.1742C21.8162 5.65028 17.185 1.15028 11.5 1.15028ZM11.5 33.1306L11.0967 32.764C10.6414 32.3596 0 22.6517 0 11.1742C0 5.01826 5.16459 0 11.5 0C17.8354 0 23 5.01826 23 11.1742C23 22.6517 12.3586 32.3596 11.9033 32.764L11.5 33.1306Z" fill="#96C25F"/>
<path d="M11.5001 3.67837C7.75347 3.67837 4.69634 6.64888 4.69634 10.2893C4.69634 13.9298 7.75347 16.9003 11.5001 16.9003C15.2597 16.9003 18.3038 13.9298 18.3038 10.2893C18.3038 6.64888 15.2597 3.67837 11.5001 3.67837ZM11.5001 18.0632C7.09001 18.0632 3.49951 14.5744 3.49951 10.2893C3.49951 6.00421 7.09001 2.52809 11.5001 2.52809C15.9101 2.52809 19.5006 6.01685 19.5006 10.302C19.5006 14.5744 15.9101 18.0632 11.5001 18.0632Z" fill="#96C25F"/>
<path d="M11.4999 36C6.34829 36 1.11865 34.7612 1.11865 32.3848C1.11865 30.9185 3.18709 29.7303 6.7906 29.1236L6.98573 30.2612C3.55134 30.8301 2.30248 31.8413 2.30248 32.3722C2.30248 33.3708 5.87996 34.8371 11.4869 34.8371C17.0938 34.8371 20.6713 33.3834 20.6713 32.3722C20.6713 31.8287 19.3834 30.8048 15.8579 30.236L16.053 29.0983C19.7346 29.6924 21.8551 30.8806 21.8551 32.3722C21.8811 34.7486 16.6515 36 11.4999 36Z" fill="#96C25F"/>
</g>
<defs>
<clipPath id="clip0">
<rect width="23" height="36" fill="white"/>
</clipPath>
</defs>
</svg>
