<svg width="70" height="71" viewBox="0 0 70 71" fill="none" xmlns="http://www.w3.org/2000/svg">
<path d="M69.4001 42.9246L69.3201 42.8442C65.6201 34.7444 61.9301 26.6347 58.2401 18.535C58.2001 18.4345 58.1601 18.334 58.1201 18.2234L60.8401 16.8366L59.5901 14.3143L56.9501 15.6207C56.5701 14.7765 56.0201 14.2942 55.4201 14.2741C55.0601 14.2741 54.4001 14.4248 53.8401 15.5503C53.8201 15.5403 53.7901 15.5403 53.7701 15.5302C51.8101 14.6559 49.6201 14.2439 46.9101 14.2439C46.8701 14.2439 46.8201 14.2439 46.7801 14.2439C44.9601 14.254 43.1401 14.254 41.3301 14.254H38.4601V12.4652H40.6601V9.62126H38.8301C38.9001 9.33988 38.9701 9.0585 39.0401 8.77712C39.2501 7.95308 39.4401 7.17929 39.5901 6.38539C39.9301 4.61672 39.3301 2.8581 37.9901 1.68233C36.6401 0.49652 34.8101 0.124697 33.1101 0.707554C30.5401 1.57179 29.2301 4.15446 29.9301 6.9984L30.5901 9.67151H28.7301V12.4853H30.9401V14.254H30.4301C29.6101 14.254 28.7801 14.2439 27.9601 14.2439C26.0101 14.2238 23.9901 14.2138 22.0101 14.2841C20.6201 14.3344 19.2301 14.5856 17.8901 14.8368L17.4701 14.9172C16.9501 15.0077 16.4601 15.1986 15.9801 15.3795C15.8301 15.4398 15.6801 15.49 15.5301 15.5503C15.0401 14.7665 14.6201 14.2841 14.1101 14.2741C14.1001 14.2741 14.0901 14.2741 14.0801 14.2741C13.5501 14.2741 13.0701 14.7765 12.4601 15.6408L9.82009 14.3243L8.58009 16.8467L11.3001 18.2536L8.90009 23.4893C6.04009 29.75 3.19009 36.0207 0.34009 42.2914C0.11009 42.814 -0.00991022 43.417 8.97849e-05 43.9596C0.10009 47.8889 3.49009 51.4765 7.25009 51.6473C11.0701 51.8081 15.1401 51.8383 20.0501 51.7277C23.3401 51.6473 25.8501 49.959 27.3101 46.8438C28.1801 44.9847 28.2201 43.3366 27.4301 41.6583C24.7901 36.0207 22.1701 30.2424 19.6401 24.665C18.7301 22.6652 17.8201 20.6554 16.9101 18.6556C16.8401 18.5048 16.7801 18.344 16.7101 18.1832L16.7001 18.1631C18.2001 17.5099 19.5201 17.1884 20.8401 17.1783C23.3201 17.1482 25.7901 17.1482 28.2701 17.1381H30.6701C30.7601 17.1381 30.8601 17.1482 30.9601 17.1683C30.9601 17.2286 30.9701 17.2788 30.9701 17.3291V19.6303C30.9701 32.6542 30.9701 45.668 30.9601 58.6818C30.9601 58.8627 30.8501 59.124 30.7101 59.2647C29.5501 60.4706 28.5001 61.5358 27.4801 62.5106C27.3101 62.6714 27.0201 62.792 26.7701 62.802C26.1701 62.8221 25.5601 62.8221 24.9501 62.8221C24.3101 62.8221 23.6501 62.8221 23.0001 62.8422C20.6101 62.9427 18.8401 64.1285 17.7501 66.3595C16.9801 67.9372 17.0401 69.2235 17.9501 70.1681L18.0201 70.2485H51.3701L51.4401 70.1681C52.3501 69.2135 52.4101 67.9372 51.6401 66.3595C50.5401 64.1285 48.7801 62.9427 46.3901 62.8422C45.7401 62.8121 45.0801 62.8121 44.4401 62.8221C43.8301 62.8221 43.2301 62.8221 42.6201 62.802C42.3701 62.792 42.0701 62.6714 41.9101 62.5106C40.9101 61.5459 39.8501 60.4907 38.6801 59.2647C38.5401 59.124 38.4301 58.8627 38.4301 58.6818C38.4101 44.8942 38.4201 31.1167 38.4201 17.3291C38.4201 17.2788 38.4201 17.2286 38.4301 17.1683C38.5301 17.1482 38.6201 17.1381 38.7101 17.1381H40.5001C43.1801 17.1381 45.8601 17.1482 48.5401 17.1683C49.7901 17.1783 51.3501 17.5602 52.6801 18.1732L52.6701 18.1933C52.6001 18.3641 52.5301 18.545 52.4501 18.7159L50.0501 23.9917C47.3701 29.8906 44.5901 35.9805 41.8301 41.9699C41.3501 43.015 41.2501 44.04 41.5201 45.2057C42.4401 49.0948 45.4501 51.587 49.4001 51.7277C53.3801 51.8684 57.4801 51.8483 61.9401 51.6775C65.4501 51.5368 68.6101 48.6727 69.2801 45.0249C69.3001 44.9344 69.3301 44.854 69.3601 44.7636L69.4101 44.6229L69.4201 43.0552L69.4001 42.9246ZM66.4101 44.8641C65.8501 46.7634 64.6801 47.9894 62.8501 48.6124C62.3301 48.7933 61.7001 48.8838 61.0201 48.8938C57.3401 48.9139 53.5601 48.924 49.7801 48.9039C47.2301 48.8938 45.0801 47.3362 44.4401 45.045C44.4201 44.9847 44.4201 44.9344 44.4101 44.8741H66.4101V44.8641ZM44.9801 41.9498C45.0201 41.8392 45.0601 41.7488 45.1101 41.6483L46.5301 38.523C49.3601 32.3025 52.2001 26.082 55.0501 19.8615C55.1201 19.7107 55.2601 19.57 55.4301 19.3992C55.4501 19.3791 55.4801 19.349 55.5001 19.3289L65.8201 41.9498H44.9801ZM31.2501 62.7719L31.3601 62.6613C31.9501 62.0785 32.5001 61.5258 33.0101 61.0132C33.0301 61.0032 33.1101 61.0132 33.1501 61.0132C33.1901 61.0132 33.2401 61.0132 33.2801 61.0132C33.4801 61.0132 33.6901 61.0132 33.8901 61.0132H34.1501C36.5601 61.0132 36.7301 61.0132 38.1701 62.7719H31.2501ZM35.5401 14.2037H33.8801V12.5657H35.5401V14.2037ZM35.5201 58.1191H33.8701V17.1482H35.5201V58.1191ZM36.8301 5.86283C36.7201 6.3653 36.5901 6.85771 36.4601 7.35012C36.3001 7.97318 36.1301 8.61633 36.0001 9.25949C35.9201 9.63131 35.8201 9.68156 35.5001 9.64136C35.3901 9.63131 35.2701 9.62126 35.1601 9.62126C35.0701 9.62126 34.9901 9.62126 34.9001 9.62126C34.8201 9.62126 34.7401 9.63131 34.6601 9.63131C33.4801 9.63131 33.4801 9.63131 33.1901 8.47564L33.0201 7.80234C32.8601 7.15919 32.7001 6.51603 32.5601 5.86283C32.3701 4.98854 32.7201 4.13436 33.4501 3.67209C34.2601 3.15958 35.0901 3.15958 35.9101 3.66204C36.6701 4.13436 37.0301 4.99859 36.8301 5.86283ZM20.4201 67.4046C20.7601 66.4499 21.8801 65.6761 23.0801 65.6259C23.4001 65.6158 23.7201 65.6158 24.0401 65.6158H24.4201H30.1801C35.4601 65.6158 40.7501 65.6158 46.0301 65.6158C47.4201 65.6158 48.5101 66.2791 49.0101 67.4046H20.4201ZM25.0301 44.854C25.0101 44.9143 24.9801 44.9746 24.9601 45.045C24.8401 45.3866 24.7301 45.7082 24.5701 45.9996C23.5501 47.8487 22.0001 48.8335 20.0801 48.8737C16.5401 48.934 12.7601 48.934 7.84009 48.8737C5.73009 48.8536 3.57009 47.095 3.03009 44.9646C3.02009 44.9244 3.02009 44.8942 3.01009 44.854H25.0301ZM3.60009 41.9598C3.64009 41.8593 3.68009 41.7588 3.72009 41.6583L3.85009 41.377C7.12009 34.2118 10.3901 27.0367 13.6701 19.8715C13.7201 19.7509 13.8501 19.6404 13.9801 19.5097C13.9901 19.4997 14.0001 19.4896 14.0101 19.4796C14.0201 19.4896 14.0301 19.4997 14.0501 19.5097C14.1801 19.6203 14.3101 19.7208 14.3601 19.8313C17.4701 26.6146 20.5601 33.3978 23.6501 40.1811L24.3301 41.6784C24.3701 41.7588 24.4001 41.8493 24.4401 41.9498H3.60009V41.9598Z" fill="#70BC1F"/>
</svg>
