<svg width="85" height="82" viewBox="0 0 85 82" fill="none" xmlns="http://www.w3.org/2000/svg">
<path d="M84.0001 47.1941C83.8378 47.8642 83.6988 48.5459 83.5134 49.2276C82.6791 52.3357 81.0337 54.9238 78.5193 56.9574C74.6723 60.0539 70.8369 63.1504 66.9783 66.2238C66.5959 66.5242 66.4684 66.8362 66.4684 67.3099C66.48 71.2152 66.48 75.1206 66.48 79.0259C66.48 80.5395 65.8891 81.1172 64.3595 81.1172C60.8718 81.1172 57.3956 81.1172 53.9078 81.1172C52.3898 81.1172 51.7873 80.5279 51.7873 79.0259C51.7873 72.8559 51.7525 66.686 51.7989 60.5276C51.8336 55.6517 53.5717 51.446 57.0595 47.9913C60.6284 44.4673 64.2205 40.9663 67.7778 37.4308C68.0559 37.1535 68.2645 36.6566 68.2761 36.2638C68.3108 32.6242 68.2992 28.9962 68.2992 25.3566C68.2992 21.9828 70.6862 19.8222 74.1045 20.1572C74.1624 19.5218 74.174 18.8863 74.2783 18.2623C74.6259 15.9862 76.422 14.2415 78.554 14.0682C81.1612 13.8602 83.0731 15.0849 83.8726 17.442C83.8958 17.5113 83.9653 17.5575 84.0117 17.6269V47.1941H84.0001ZM55.1592 77.8589C57.6041 77.8589 59.9795 77.8358 62.3434 77.8705C63.0154 77.882 63.2124 77.6856 63.2008 77.0154C63.1661 73.4914 63.2124 69.9558 63.1776 66.4318C63.1661 65.4728 63.5021 64.8142 64.2437 64.2249C68.2992 61.0013 72.32 57.743 76.3524 54.4963C79.2145 52.1855 80.7209 49.1698 80.7324 45.5303C80.7672 36.6451 80.7209 27.7599 80.7093 18.8747C80.7093 17.8926 80.2342 17.3727 79.2724 17.2918C78.3802 17.2225 77.6155 17.8117 77.488 18.6898C77.4416 18.9787 77.4532 19.2791 77.4532 19.5795C77.4532 25.7957 77.4532 32.0234 77.4532 38.2396C77.4532 38.6093 77.4648 38.9906 77.5228 39.3603C77.8356 41.1397 77.3258 42.6648 76.1091 43.9589C74.2783 45.9 72.4127 47.8064 70.5472 49.7244C70.4197 49.8631 70.2807 49.9902 70.13 50.1057C69.5043 50.5448 68.867 50.5448 68.2413 50.1173C67.6503 49.7244 67.3723 48.9272 67.6503 48.257C67.7894 47.922 68.0559 47.6216 68.3108 47.3558C70.1185 45.4609 71.9492 43.5891 73.7337 41.6943C74.5448 40.8392 74.51 39.6145 73.7221 38.8635C72.911 38.0893 71.7639 38.0893 70.8948 38.9328C66.8624 42.8728 62.8068 46.7897 58.8556 50.799C56.457 53.2254 55.1476 56.241 55.1013 59.661C55.0086 65.5537 55.0665 71.4579 55.0549 77.3505C55.0897 77.4892 55.1244 77.6163 55.1592 77.8589ZM74.0697 35.2008C74.0929 35.1315 74.1393 35.0853 74.1393 35.039C74.1508 31.3879 74.1624 27.7368 74.1277 24.0857C74.1277 23.8546 73.78 23.4964 73.5367 23.4386C72.378 23.1613 71.5437 23.9701 71.5321 25.3104C71.5205 28.2683 71.5321 31.2146 71.5321 34.1725V35.0159C72.4243 35.0737 73.2239 35.143 74.0697 35.2008Z" fill="#70BC1F"/>
<path d="M10.8609 20.1341C13.8968 19.9146 16.0404 21.382 16.6314 24.0279C16.7125 24.4207 16.7241 24.8251 16.7241 25.2295C16.7357 28.869 16.7473 32.497 16.7125 36.1366C16.7125 36.7258 16.8979 37.1302 17.315 37.5346C20.7333 40.8622 24.1052 44.2475 27.5466 47.552C31.3936 51.2493 33.2592 55.7439 33.236 61.0588C33.2128 66.986 33.236 72.9133 33.2244 78.829C33.2244 80.5621 32.6798 81.1167 30.9649 81.1167C27.5119 81.1167 24.0473 81.1167 20.5943 81.1167C19.1342 81.1167 18.5317 80.5159 18.5317 79.0485C18.5317 75.1432 18.5201 71.2379 18.5433 67.3326C18.5433 66.8243 18.3811 66.5008 17.9871 66.1888C14.0011 63.0114 9.98026 59.8687 6.07534 56.5989C2.93517 53.9646 1.11596 50.4868 1.05802 46.3966C0.930564 37.0493 1.01168 27.7021 1.02326 18.3548C1.02326 16.1711 2.912 14.2877 5.21787 14.0682C8.34645 13.7794 10.7219 15.8591 10.8493 19.0249C10.8725 19.3947 10.8609 19.7644 10.8609 20.1341ZM29.9336 77.8469V76.9341C29.9336 71.5499 29.9105 66.1657 29.9452 60.7815C29.9684 56.5411 28.4505 52.9824 25.403 50.0246C22.7495 47.448 20.1308 44.8484 17.5004 42.2602C16.3417 41.1279 15.1946 39.9841 14.0242 38.8749C13.329 38.2163 12.4831 38.1239 11.7184 38.5398C10.9999 38.9211 10.5365 39.6837 10.7103 40.4809C10.8261 41.0008 11.1158 41.5439 11.4866 41.9252C15.1366 45.7842 18.8214 49.6087 22.4946 53.4446C23.2593 54.2418 23.2941 55.2355 22.6336 55.8941C21.9152 56.6104 20.965 56.5527 20.1423 55.6977C16.3881 51.7924 12.6338 47.8755 8.89106 43.9587C8.12629 43.1615 7.5701 42.2256 7.48899 41.1164C7.43105 40.1574 7.54693 39.1984 7.54693 38.2279C7.55851 32.0117 7.54693 25.7841 7.54693 19.568C7.54693 19.2445 7.55851 18.9209 7.50058 18.5974C7.34994 17.7655 6.58518 17.2109 5.72772 17.2803C4.80073 17.3611 4.30248 17.8695 4.30248 18.7823C4.2793 27.7598 4.23295 36.7374 4.2793 45.7034C4.30248 49.2505 5.80883 52.1968 8.60137 54.4498C12.3904 57.5232 16.1679 60.6197 20.0381 63.5891C21.3822 64.6174 21.9268 65.7035 21.8573 67.3904C21.7298 70.614 21.8225 73.8492 21.8225 77.0843C21.8225 77.4078 21.6835 77.8353 22.2628 77.8353C24.7773 77.8469 27.2801 77.8469 29.9336 77.8469ZM13.4912 35.0158C13.4912 31.6536 13.5376 28.3144 13.4449 24.9753C13.4333 24.4785 12.935 23.8199 12.4715 23.5426C11.5677 22.988 10.8609 23.4733 10.8609 24.5131C10.8609 27.7945 10.8609 31.0874 10.8609 34.3688V35.2122C11.7763 35.1429 12.5758 35.0851 13.4912 35.0158Z" fill="#70BC1F"/>
<path d="M42.5058 38.5049C32.0541 38.5049 23.5605 30.0242 23.5605 19.614C23.5605 9.20382 32.0541 0.723145 42.5058 0.723145C52.9576 0.723145 61.4511 9.20382 61.4511 19.614C61.4511 30.0242 52.946 38.5049 42.5058 38.5049ZM42.5058 5.98024C34.9741 5.98024 28.8328 12.0923 28.8328 19.614C28.8328 27.1357 34.9625 33.2478 42.5058 33.2478C50.0492 33.2478 56.1789 27.1357 56.1789 19.614C56.1673 12.1039 50.0376 5.98024 42.5058 5.98024Z" fill="#70BC1F"/>
</svg>
