<svg width="207" height="206" viewBox="0 0 207 206" fill="none" xmlns="http://www.w3.org/2000/svg">
<path d="M36.6953 84.6524V82.5527H44.0917V84.6524C44.0917 86.2271 45.0937 87.2769 46.8593 87.2769C48.6249 87.2769 49.627 86.2271 49.627 84.6524V80.644C49.627 79.0693 48.6249 78.0195 46.8593 78.0195C40.6559 78.0195 36.6953 74.1543 36.6953 68.3327V63.0837C36.6953 57.262 40.6559 53.3969 46.8593 53.3969C53.0627 53.3969 57.0233 57.262 57.0233 63.0837V65.1833H49.627V63.0837C49.627 61.509 48.6249 60.4592 46.8593 60.4592C45.0937 60.4592 44.0917 61.509 44.0917 63.0837V68.3327C44.0917 69.9074 45.0937 70.9572 46.8593 70.9572C53.0627 70.9572 57.0233 74.8224 57.0233 80.644V84.6524C57.0233 90.474 53.0627 94.3392 46.8593 94.3392C40.6082 94.2915 36.6953 90.4263 36.6953 84.6524Z" fill="#8EC043"/>
<path d="M62.9883 54.2557H73.1523C79.3557 54.2557 83.3163 58.1209 83.3163 63.9426V69.1916C83.3163 75.0132 79.3557 78.8784 73.1523 78.8784H70.3846V93.5279H62.9883V54.2557ZM73.1523 71.7684C74.9179 71.7684 75.9199 70.7186 75.9199 69.1439V63.8948C75.9199 62.3201 74.9179 61.2703 73.1523 61.2703H70.3846V71.7206H73.1523V71.7684Z" fill="#8EC043"/>
<path d="M105.314 61.3181H95.6752V69.1439H103.787V76.2062H95.6752V86.4179H105.314V93.4802H88.2788V54.2557H105.314V61.3181Z" fill="#8EC043"/>
<path d="M132.8 93.4802H125.213L124.258 87.3723H117.864L116.862 93.4802H109.275L117.101 54.2557H125.117L132.8 93.4802ZM123.209 80.3099L121.157 66.9965L119.009 80.3099H123.209Z" fill="#8EC043"/>
<path d="M150.456 68.285L159.618 93.4803H151.649L145.35 75.6337L144.539 76.8266V93.4326H137.143V54.2081H144.539V65.2311L152.222 54.2081H160.191L150.456 68.285Z" fill="#8EC043"/>
<path d="M58.0253 129.174C58.0253 134.995 54.0647 138.86 47.8613 138.86C41.6579 138.86 37.6973 134.995 37.6973 129.174V98.777H45.0936V129.174C45.0936 130.748 46.0957 131.798 47.8613 131.798C49.6268 131.798 50.6289 130.748 50.6289 129.174V98.777H58.0253V129.174Z" fill="#8EC043"/>
<path d="M65.231 98.8247H75.395C81.5983 98.8247 85.559 102.69 85.559 108.512V113.761C85.559 119.582 81.5983 123.447 75.395 123.447H72.6273V138.097H65.231V98.8247ZM75.395 116.337C77.1605 116.337 78.1626 115.288 78.1626 113.713V108.464C78.1626 106.889 77.1605 105.839 75.395 105.839H72.6273V116.29H75.395V116.337Z" fill="#8EC043"/>
<path d="M90.999 98.8247H98.3954V127.074H90.999V98.8247ZM90.999 130.176H98.3954V138.001H90.999V130.176Z" fill="#8EC043"/>
<path d="M166.06 127.742C159.284 112.138 143.966 103.692 131.989 108.893C125.07 111.9 120.775 118.771 119.63 127.074C115.764 131.369 108.941 137.286 97.7747 142.153C92.812 144.3 91.285 151.84 94.3867 158.95C97.4884 166.06 104.026 170.068 108.988 167.921C109.752 167.587 110.468 167.301 111.231 167.014C113.092 169.209 115.717 172.645 118.055 177.321C118.818 178.848 120.632 179.516 122.206 178.848L127.312 176.606C128.935 175.89 129.698 173.981 128.935 172.359C127.455 169.114 125.785 166.06 123.829 163.292C128.314 162.433 132.084 162.242 135.09 162.338C141.866 167.062 149.788 168.541 156.611 165.535C168.636 160.286 172.836 143.346 166.06 127.742Z" fill="white"/>
<path d="M166.06 127.742C159.284 112.138 143.966 103.692 131.989 108.893C125.07 111.9 120.775 118.771 119.63 127.074C115.764 131.369 108.941 137.286 97.7747 142.153C92.812 144.3 91.285 151.84 94.3867 158.95C97.4884 166.06 104.026 170.068 108.988 167.921C109.752 167.587 110.468 167.301 111.231 167.014C113.092 169.209 115.717 172.645 118.055 177.321C118.818 178.848 120.632 179.516 122.206 178.848L127.312 176.606C128.935 175.89 129.698 173.981 128.935 172.359C127.455 169.114 125.785 166.06 123.829 163.292C128.314 162.433 132.084 162.242 135.09 162.338C141.866 167.062 149.788 168.541 156.611 165.535C168.636 160.286 172.836 143.346 166.06 127.742ZM123.304 161.193C119.868 158.759 116.719 154.941 114.619 150.122C112.52 145.35 111.899 140.483 112.424 136.331C115.24 134.327 117.53 132.323 119.343 130.51C119.2 135.711 120.202 141.246 122.588 146.686C124.974 152.174 128.41 156.755 132.37 160.19C129.746 160.238 126.692 160.525 123.304 161.193ZM155.657 162.433C145.445 166.871 132.227 159.141 126.119 145.111C120.011 131.082 123.352 116.146 133.563 111.661C143.775 107.223 156.993 114.954 163.101 128.983C169.209 143.012 165.869 157.995 155.657 162.433Z" fill="#016A40"/>
<path d="M135.186 115.383C127.121 118.914 124.783 131.416 130.032 143.394C135.233 155.371 146.018 162.195 154.082 158.711C162.146 155.18 164.485 142.678 159.236 130.701C154.034 118.723 143.25 111.899 135.186 115.383ZM137.047 149.74C135.281 147.641 133.706 145.159 132.466 142.344C131.225 139.528 130.509 136.665 130.175 133.945L136.951 131.989C136.235 134.327 136.426 137.238 137.619 140.053C138.86 142.869 140.864 144.968 143.059 146.066L137.047 149.74ZM147.401 143.489C145.016 144.539 141.818 142.487 140.291 138.956C138.764 135.425 139.433 131.703 141.818 130.653C144.204 129.603 147.401 131.655 148.928 135.186C150.503 138.717 149.835 142.439 147.401 143.489Z" fill="#016A40"/>
<path d="M174.486 100.386L164.217 111.88L167.668 114.964L177.938 103.47L174.486 100.386Z" fill="#DD363B"/>
<path d="M187.523 116.704L173.44 121.534L174.942 125.912L189.025 121.082L187.523 116.704Z" fill="#DD363B"/>
<path d="M174.955 137.01L173.967 141.533L187.021 144.385L188.009 139.863L174.955 137.01Z" fill="#DD363B"/>
<path d="M137.047 149.74C135.281 147.64 133.706 145.159 132.466 142.344C131.225 139.528 130.509 136.665 130.175 133.945L136.951 131.989C136.236 134.327 136.426 137.238 137.619 140.053C138.86 142.869 140.864 144.968 143.059 146.066L137.047 149.74Z" fill="white"/>
<path d="M147.426 143.476C149.818 142.434 150.504 138.711 148.958 135.159C147.412 131.607 144.219 129.571 141.827 130.612C139.435 131.654 138.749 135.377 140.295 138.929C141.841 142.482 145.034 144.517 147.426 143.476Z" fill="white"/>
<path d="M103.024 206C46.1913 206 0 159.809 0 103.024C0 46.2391 46.1913 0 103.024 0C159.856 0 206.048 46.1913 206.048 103.024C206.048 159.856 159.809 206 103.024 206ZM103.024 4.62868C48.7681 4.62868 4.62868 48.7681 4.62868 103.024C4.62868 157.28 48.7681 201.371 103.024 201.371C157.28 201.371 201.371 157.232 201.371 103.024C201.371 48.8158 157.232 4.62868 103.024 4.62868Z" fill="#DC373B"/>
</svg>
