<svg width="77" height="77" viewBox="0 0 77 77" fill="none" xmlns="http://www.w3.org/2000/svg">
<path d="M37.3699 61.5608C33.6399 60.0535 31.9299 57.4507 32.5599 54.3957C33.1999 51.2805 35.6599 49.3309 38.8499 49.4013C41.6299 49.4616 44.0999 51.6824 44.5299 54.5766C44.8899 57.0085 43.8299 60.2745 39.8199 61.5608C41.0299 61.5608 42.2499 61.5608 43.4599 61.5608C46.9499 61.5709 49.4099 64.033 49.4199 67.5301C49.4299 69.9118 49.4199 72.2934 49.4199 74.6751C49.4199 75.7303 49.0099 76.1523 47.9599 76.1523C41.6799 76.1523 35.3999 76.1523 29.1199 76.1523C28.0299 76.1523 27.6299 75.7504 27.6299 74.6349C27.6299 72.203 27.6199 69.7711 27.6299 67.3392C27.6399 64.0932 30.1599 61.5809 33.3999 61.5608C34.6799 61.5508 35.9599 61.5608 37.3699 61.5608ZM46.9899 73.6903C46.9899 71.4493 47.0599 69.2686 46.9699 67.098C46.8899 65.3092 45.4499 64.0129 43.6599 63.9928C40.2299 63.9626 36.7999 63.9626 33.3699 63.9928C31.6399 64.0129 30.2099 65.2489 30.1099 66.9774C29.9899 69.1983 30.0799 71.4191 30.0799 73.6702H32.4799C32.4799 72.0824 32.4499 70.5449 32.4999 69.0073C32.5099 68.6255 32.6999 68.123 32.9899 67.9019C33.2699 67.6909 33.8699 67.6105 34.1499 67.7713C34.4899 67.9723 34.8399 68.4848 34.8599 68.8767C34.9399 70.4645 34.8899 72.0522 34.8899 73.6601H42.1599C42.1599 72.0723 42.1299 70.5348 42.1799 68.9872C42.1899 68.6054 42.3799 68.1029 42.6699 67.8919C42.9499 67.6808 43.5499 67.6004 43.8299 67.7713C44.1699 67.9723 44.5199 68.4848 44.5399 68.8767C44.6199 70.4645 44.5699 72.0523 44.5699 73.6702H46.9899V73.6903ZM38.5099 59.1189C40.4499 59.139 42.1399 57.4708 42.1599 55.5112C42.1799 53.5415 40.5499 51.8633 38.5899 51.8332C36.6199 51.793 34.9099 53.4812 34.9099 55.481C34.8999 57.4406 36.5399 59.0887 38.5099 59.1189Z" fill="#70BC1F"/>
<path d="M63.8501 37.2315C60.0701 36.0457 58.8101 32.9506 59.1401 30.3278C59.5001 27.4739 62.0001 25.1626 64.7601 25.0721C67.9001 24.9717 70.4201 26.881 71.0701 29.8454C71.7801 33.0913 70.1901 35.6136 66.3201 37.2315C67.7201 37.2315 69.0001 37.2215 70.2801 37.2315C73.5201 37.2516 76.0301 39.7639 76.0501 43.0097C76.0601 45.4717 76.0601 47.9237 76.0501 50.3857C76.0501 51.4007 75.6301 51.8228 74.6301 51.8228C68.3001 51.8228 61.9701 51.8228 55.6401 51.8228C54.6901 51.8228 54.2701 51.3906 54.2601 50.4259C54.2501 47.8936 54.2401 45.3612 54.2601 42.8188C54.2901 39.8141 56.8401 37.2717 59.8301 37.2315C61.1801 37.2215 62.5201 37.2315 63.8501 37.2315ZM59.1101 49.3607C59.1101 47.7629 59.0801 46.2154 59.1301 44.6779C59.1401 44.296 59.3301 43.7936 59.6201 43.5825C59.9001 43.3715 60.5001 43.2911 60.7901 43.4619C61.1301 43.6629 61.4801 44.1754 61.5001 44.5673C61.5801 46.1551 61.5301 47.7428 61.5301 49.3507H68.8001C68.8001 47.7629 68.8101 46.2154 68.7901 44.6779C68.7801 44.0046 69.0601 43.5423 69.6901 43.3514C70.5001 43.1102 71.2001 43.7132 71.2101 44.6477C71.2201 46.2053 71.2101 47.773 71.2101 49.3507H73.6201C73.6201 47.1198 73.6901 44.9492 73.6001 42.7786C73.5201 40.9899 72.0801 39.6935 70.2801 39.6835C66.8801 39.6533 63.4701 39.6533 60.0701 39.6835C58.2901 39.6935 56.8401 40.9195 56.7401 42.6781C56.6201 44.8889 56.7101 47.1198 56.7101 49.3808H59.1101V49.3607ZM68.7901 31.1518C68.7801 29.1822 67.1501 27.5141 65.1901 27.504C63.2101 27.4839 61.5101 29.1923 61.5301 31.1719C61.5501 33.1415 63.2001 34.7896 65.1701 34.7896C67.1101 34.7896 68.7901 33.1013 68.7901 31.1518Z" fill="#70BC1F"/>
<path d="M10.6001 37.2316C6.90006 36.096 5.50006 32.9807 5.90006 30.2473C6.36006 27.142 8.95007 25.0317 12.1101 25.0719C14.9701 25.1121 17.4701 27.3531 17.9101 30.2975C18.3701 33.3726 16.4601 36.1462 13.1901 37.2416C13.4301 37.2416 13.6801 37.2316 13.9201 37.2416C15.3801 37.2818 16.8701 37.1612 18.2901 37.4125C20.9401 37.8747 22.7701 40.2564 22.7801 42.9396C22.7901 45.4218 22.7901 47.904 22.7801 50.3862C22.7801 51.3911 22.3501 51.8232 21.3601 51.8232C15.0601 51.8232 8.75007 51.8232 2.45005 51.8232C1.41005 51.8232 1.00005 51.4012 1.00005 50.3359C1.00005 47.8738 0.99005 45.4218 1.00005 42.9597C1.02005 39.7741 3.54006 37.2517 6.74006 37.2316C8.03007 37.2215 9.31007 37.2316 10.6001 37.2316ZM20.3701 49.3611C20.3701 47.1503 20.4201 45.0198 20.3601 42.8994C20.3101 41.0805 18.9001 39.6937 17.0801 39.6736C13.6301 39.6334 10.1701 39.6334 6.72006 39.6736C5.10006 39.6937 3.82006 40.779 3.54006 42.3869C3.39005 43.221 3.44006 44.1053 3.44006 44.9595C3.43006 46.4167 3.44006 47.8839 3.44006 49.3411H5.87006V48.5371C5.87006 47.1905 5.85006 45.8539 5.88006 44.5073C5.89006 43.7838 6.40006 43.3114 7.08006 43.3215C7.76006 43.3215 8.24007 43.7938 8.28007 44.5174C8.30007 44.7987 8.28007 45.0801 8.28007 45.3515V49.3511H15.5501V48.5371C15.5501 47.2206 15.5401 45.9042 15.5601 44.5877C15.5701 43.8139 16.0601 43.3215 16.7701 43.3315C17.4801 43.3315 17.9401 43.824 17.9701 44.6078C17.9801 44.8892 17.9701 45.1706 17.9701 45.4419V49.3812H20.3701V49.3611ZM11.8901 34.7896C13.8301 34.8097 15.5201 33.1214 15.5201 31.1718C15.5301 29.2021 13.9001 27.5339 11.9401 27.5038C9.96007 27.4736 8.26007 29.172 8.27007 31.1618C8.28007 33.1214 9.92007 34.7695 11.8901 34.7896Z" fill="#70BC1F"/>
<path d="M39.82 12.9025C41.1 12.9025 42.39 12.8925 43.67 12.9025C46.89 12.9226 49.4 15.4449 49.41 18.7009C49.42 21.1328 49.42 23.5647 49.41 25.9966C49.41 27.0618 49 27.4839 47.97 27.4839C41.67 27.4839 35.36 27.4839 29.06 27.4839C28.06 27.4839 27.63 27.0618 27.63 26.0569C27.62 23.5446 27.61 21.0424 27.63 18.5301C27.65 15.4751 30.19 12.9326 33.23 12.8925C34.56 12.8824 35.9 12.8925 37.26 12.8422C35.62 12.3699 34.29 11.4956 33.38 10.0385C32.47 8.5713 32.24 6.97347 32.64 5.29526C33.32 2.44129 35.98 0.562088 39.05 0.732924C41.77 0.883662 44.23 3.24522 44.54 6.04895C44.86 8.83258 43.38 11.8071 39.82 12.9025ZM47 25.0319C47 22.9517 47.01 20.9318 47 18.9119C46.99 16.7614 45.58 15.3445 43.44 15.3344C40.16 15.3244 36.88 15.3244 33.61 15.3344C31.47 15.3445 30.07 16.7614 30.06 18.922C30.05 20.771 30.06 22.6201 30.06 24.4691C30.06 24.6601 30.1 24.851 30.11 25.0218H32.48C32.48 23.3939 32.47 21.8061 32.49 20.2083C32.5 19.4747 32.98 18.9923 33.65 18.9823C34.36 18.9622 34.87 19.4546 34.89 20.2183C34.91 21.3338 34.9 22.4492 34.9 23.5647V25.0218H42.17C42.17 23.4642 42.15 21.9468 42.19 20.4394C42.2 20.0676 42.31 19.5551 42.56 19.3641C42.86 19.123 43.4 19.0124 43.79 19.0828C44.32 19.1833 44.59 19.6556 44.59 20.2284C44.59 21.8161 44.59 23.4039 44.59 25.0319H47ZM38.49 3.17488C36.53 3.19498 34.89 4.87319 34.9 6.83279C34.91 8.82253 36.62 10.5007 38.6 10.4605C40.55 10.4204 42.2 8.70194 42.15 6.76244C42.1 4.7727 40.44 3.14473 38.49 3.17488Z" fill="#70BC1F"/>
<path d="M43.37 38.4377C43.37 41.1511 41.23 43.3018 38.53 43.3018C35.83 43.3018 33.6899 41.1511 33.6899 38.4377C33.6899 35.7243 35.83 33.5737 38.53 33.5737C41.23 33.5838 43.36 35.7243 43.37 38.4377ZM40.94 38.4679C40.96 37.1815 39.85 36.0359 38.55 36.0158C37.28 35.9957 36.12 37.1313 36.11 38.4176C36.1 39.714 37.21 40.8496 38.51 40.8697C39.79 40.8898 40.93 39.7643 40.94 38.4679Z" fill="#70BC1F"/>
<path d="M28.85 10.0989C28.83 10.8425 28.32 11.1239 27.73 11.355C24.97 12.4504 22.39 13.8874 20.18 15.8671C18.51 17.3543 17.05 19.0727 15.49 20.6806C15.23 20.9419 14.95 21.2434 14.62 21.3639C14.11 21.5448 13.61 21.3539 13.31 20.8715C12.97 20.3389 13.07 19.8264 13.44 19.334C15.26 16.9222 17.39 14.8119 19.81 13.0031C22.05 11.345 24.46 9.99839 27.05 8.98343C28.02 8.59151 28.87 9.13417 28.85 10.0989Z" fill="#70BC1F"/>
<path d="M64.11 20.2583C63.8 20.62 63.57 21.0521 63.21 21.2833C62.71 21.5948 62.18 21.4139 61.79 20.9617C61.26 20.3487 60.78 19.6955 60.25 19.0925C57.23 15.6557 53.6 13.1032 49.3899 11.3546C48.9899 11.1938 48.4999 10.9125 48.3599 10.5708C48.2099 10.209 48.3099 9.61611 48.5199 9.26439C48.8499 8.74183 49.4299 8.74183 50.0099 8.97296C53.31 10.2995 56.37 12.038 59 14.4498C60.61 15.927 62.03 17.6153 63.52 19.2332C63.74 19.4644 63.86 19.8161 64.11 20.2583Z" fill="#70BC1F"/>
<path d="M24 64.1841C23.97 65.4704 22.9 66.003 22.01 65.3699C20.39 64.2142 18.74 63.0786 17.27 61.7421C15.89 60.4959 14.72 59.0287 13.49 57.6117C12.91 56.9384 12.97 56.2048 13.54 55.7425C14.11 55.2802 14.85 55.3908 15.38 56.0842C17.58 58.9684 20.21 61.3602 23.27 63.2997C23.65 63.5309 23.86 63.9931 24 64.1841Z" fill="#70BC1F"/>
<path d="M54.0998 65.791C53.7698 65.4694 53.3398 65.1981 53.1298 64.8062C52.8798 64.3239 53.0698 63.8013 53.5298 63.4697C53.9798 63.1381 54.4498 62.8567 54.9098 62.5452C57.4399 60.7967 59.6499 58.7065 61.5299 56.2646C61.7499 55.9732 62.0499 55.6818 62.3699 55.5512C62.8799 55.3502 63.3799 55.511 63.6999 55.9833C64.0799 56.5259 63.9899 57.0685 63.5899 57.5911C61.7399 60.0229 59.5999 62.1533 57.1499 63.9521C56.4798 64.4445 55.7798 64.8967 55.0798 65.3489C54.8498 65.4996 54.5598 65.59 54.0998 65.791Z" fill="#70BC1F"/>
</svg>
