<svg width="332" height="220" viewBox="0 0 332 220" fill="none" xmlns="http://www.w3.org/2000/svg">
<path d="M44.221 87.1533C56.6591 87.1533 66.7456 97.1441 66.7456 109.485C66.7456 121.811 56.6591 131.816 44.221 131.816C31.783 131.816 21.6965 121.826 21.6965 109.485C21.6965 97.1589 31.783 87.1533 44.221 87.1533Z" fill="#37AD63"/>
<path d="M330.715 109.092H194.899V219.757H330.715V109.092Z" fill="#016A40"/>
<path d="M331.973 163.167H276.64V219.757H331.973V163.167Z" fill="#99CDA2"/>
<path d="M331.983 109.092H276.64V163.953H331.983V109.092Z" fill="#37AD63"/>
<path d="M0 219.442H221.341L110.67 109.721L0 219.442Z" fill="#016A40"/>
<path d="M110.67 109.721L221.355 219.443V0L110.67 109.721Z" fill="#2FB3E8"/>
<path d="M221.34 110.35V220.071H110.67C110.67 159.476 160.215 110.35 221.34 110.35Z" fill="#99CDA2"/>
<path d="M110.67 0.87207L220.231 109.485C220.231 49.4959 171.174 0.87207 110.67 0.87207Z" fill="#37AD63"/>
<path d="M220.231 109.485L110.67 0.87207C110.67 60.8611 159.727 109.485 220.231 109.485Z" fill="#016A40"/>
<path d="M332.026 0V109.721H221.355L332.026 0Z" fill="#2FB3E8"/>
<path d="M331.138 0.87207L221.577 109.485C221.577 49.4959 270.634 0.87207 331.138 0.87207Z" fill="#016A40"/>
<path d="M221.592 109.485L331.153 0.87207C331.153 60.8611 282.096 109.485 221.592 109.485Z" fill="#37AD63"/>
</svg>
