<svg width="226" height="335" viewBox="0 0 226 335" fill="none" xmlns="http://www.w3.org/2000/svg">
<path d="M112.648 335V223.333V111.667H105.137V335H112.648Z" fill="#03AB8F"/>
<path d="M97.6257 335V244.421V111.667H90.1149V335H97.6257Z" fill="#03AB8F"/>
<path d="M82.6045 335V244.421V111.667H75.0936V335H82.6045Z" fill="#03AB8F"/>
<path d="M67.5824 335V244.421V111.667H60.0715V335H67.5824Z" fill="#03AB8F"/>
<path d="M52.561 335V244.421V111.667H45.0502V335H52.561Z" fill="#03AB8F"/>
<path d="M37.5541 335V244.421V111.667H30.0432V335H37.5541Z" fill="#03AB8F"/>
<path d="M22.5329 335V244.421V111.667H15.0221V335H22.5329Z" fill="#03AB8F"/>
<path d="M7.51084 244.421V111.667H0V223.333V335H7.51084V244.421Z" fill="#03AB8F"/>
<path d="M225.28 0V0.0300826C225.28 1.02281 225.265 1.98545 225.25 2.97818C223.685 63.2788 173.893 111.682 112.693 111.682H195.116C185.227 128.618 173.171 144.141 159.308 157.889L159.293 157.904C118.533 198.335 62.2091 223.333 0 223.333V0H225.28Z" fill="#2FB3E8"/>
<path d="M0 0V157.934C87.9928 157.934 159.308 87.2245 159.308 0H0Z" fill="white"/>
<path d="M0 0V89.9019C50.0773 89.9019 90.672 49.6514 90.672 0H0Z" fill="#37AD63"/>
<path d="M225.28 0V0.0300826C225.28 1.02281 225.265 1.98545 225.25 2.97818C223.685 63.2788 173.893 111.682 112.693 111.682V0H225.28Z" fill="#016A40"/>
</svg>
